<svg width="64" height="64" viewBox="0 0 64 64" fill="none" xmlns="http://www.w3.org/2000/svg">
<g clip-path="url(#clip0_1_95)">
<path d="M32.0011 -0.113037C23.4221 -0.113037 15.3571 3.22696 9.29206 9.29296C3.22606 15.359 -0.112938 23.423 -0.111938 32.001C-0.111938 40.579 3.22806 48.586 9.29206 54.652C15.3571 60.717 23.4211 64 31.9991 64C32.0001 64 32.0011 64 32.0011 64H32.0041C49.7101 64 64.1141 49.649 64.1131 31.943C64.1141 23.365 60.7731 15.329 54.7081 9.26296C48.6441 3.19896 40.5791 -0.113037 32.0011 -0.113037ZM32.0001 62.113V63.113V62C31.9991 62 31.9991 62 31.9981 62C23.9551 62 16.3931 58.924 10.7061 53.238C5.02006 47.55 1.88806 40.017 1.88806 31.973C1.88706 23.929 5.01806 16.381 10.7061 10.693C16.3941 5.00496 23.9561 1.88096 32.0011 1.88096C40.0451 1.88096 47.6061 5.01696 53.2941 10.704C58.9821 16.392 62.1111 23.955 62.1111 31.999C62.1121 48.601 49.0001 62.112 32.0001 62.113Z" fill="#70B446"/>
<path d="M32 9C25.856 9 20.081 11.393 15.737 15.738C11.393 20.082 9 25.857 9 32H11C11 26.392 13.185 21.118 17.151 17.151C21.117 13.185 26.391 11 32 11C37.609 11 42.883 13.185 46.85 17.152C50.815 21.119 53 26.392 53 32H55C55 25.858 52.607 20.082 48.264 15.737C43.921 11.392 38.144 9 32 9Z" fill="#70B446"/>
<path d="M30.757 32.2929L24.757 25.3459L23.243 26.6539L29.315 33.6859C29.115 34.0949 28.998 34.5429 29 35.0129C29.004 35.8139 29.318 36.5659 29.888 37.1299C30.453 37.6909 31.204 37.9999 32 37.9999C32.807 37.9999 33.562 37.6849 34.131 37.1119C35.294 35.9369 35.286 34.0339 34.112 32.8699C33.233 31.9989 31.857 31.8129 30.757 32.2929ZM32.71 35.7039C32.334 36.0819 31.675 36.0849 31.296 35.7099C31.107 35.5219 31.001 35.2709 31 35.0039C30.999 34.7369 31.102 34.4859 31.291 34.2959C31.479 34.1039 31.731 33.9999 32 33.9999C32.266 33.9999 32.516 34.1029 32.704 34.2909C33.096 34.6779 33.098 35.3119 32.71 35.7039Z" fill="#70B446"/>
</g>
<defs>
<clipPath id="clip0_1_95">
<rect width="64" height="64" fill="white"/>
</clipPath>
</defs>
</svg>
